<svg xmlns="http://www.w3.org/2000/svg" xmlns:xlink="http://www.w3.org/1999/xlink" width="1000" zoomAndPan="magnify" viewBox="0 0 750 187.499995" height="250" preserveAspectRatio="xMidYMid meet" version="1.0"><defs><g/></defs><g fill="#ffffff" fill-opacity="1"><g transform="translate(16.749687, 137.285819)"><g><path d="M 11.828125 -122.734375 C 15.003906 -125.910156 18.789062 -127.5 23.1875 -127.5 C 27.59375 -127.5 31.382812 -125.910156 34.5625 -122.734375 C 37.738281 -119.554688 39.328125 -115.765625 39.328125 -111.359375 C 39.328125 -106.960938 37.738281 -103.175781 34.5625 -100 C 31.382812 -96.820312 27.59375 -95.234375 23.1875 -95.234375 C 18.789062 -95.234375 15.003906 -96.820312 11.828125 -100 C 8.648438 -103.175781 7.0625 -106.960938 7.0625 -111.359375 C 7.0625 -115.765625 8.648438 -119.554688 11.828125 -122.734375 Z M 9.21875 -78.796875 L 9.21875 6.90625 C 9.21875 14.082031 6.707031 17.671875 1.6875 17.671875 C 0.664062 17.671875 -0.40625 17.488281 -1.53125 17.125 C -2.65625 16.769531 -3.578125 16.382812 -4.296875 15.96875 L -5.21875 15.359375 L -13.671875 37.328125 C -13.460938 37.429688 -12.796875 37.738281 -11.671875 38.25 C -10.546875 38.757812 -9.703125 39.140625 -9.140625 39.390625 C -8.578125 39.648438 -7.628906 39.984375 -6.296875 40.390625 C -4.960938 40.804688 -3.679688 41.113281 -2.453125 41.3125 C -1.222656 41.519531 0.3125 41.726562 2.15625 41.9375 C 4 42.144531 5.941406 42.25 7.984375 42.25 C 13.109375 42.25 17.613281 41.347656 21.5 39.546875 C 25.394531 37.753906 28.363281 35.347656 30.40625 32.328125 C 32.457031 29.304688 33.96875 26.128906 34.9375 22.796875 C 35.914062 19.472656 36.40625 15.921875 36.40625 12.140625 L 36.40625 -78.796875 Z M 9.21875 -78.796875 "/></g></g></g><g fill="#ffffff" fill-opacity="1"><g transform="translate(49.311537, 137.285819)"><g><path d="M 16.65625 -9.375 C 7.90625 -17.15625 3.53125 -27.140625 3.53125 -39.328125 C 3.53125 -51.515625 8.085938 -61.523438 17.203125 -69.359375 C 26.316406 -77.191406 37.582031 -81.109375 51 -81.109375 C 64.207031 -81.109375 75.34375 -77.164062 84.40625 -69.28125 C 93.46875 -61.394531 98 -51.410156 98 -39.328125 C 98 -27.242188 93.566406 -17.285156 84.703125 -9.453125 C 75.847656 -1.617188 64.613281 2.296875 51 2.296875 C 36.863281 2.296875 25.414062 -1.59375 16.65625 -9.375 Z M 37.703125 -52.6875 C 34.171875 -49.207031 32.40625 -44.753906 32.40625 -39.328125 C 32.40625 -33.898438 34.09375 -29.46875 37.46875 -26.03125 C 40.851562 -22.601562 45.3125 -20.890625 50.84375 -20.890625 C 56.164062 -20.890625 60.539062 -22.628906 63.96875 -26.109375 C 67.40625 -29.597656 69.125 -34.003906 69.125 -39.328125 C 69.125 -44.753906 67.359375 -49.207031 63.828125 -52.6875 C 60.296875 -56.164062 55.96875 -57.90625 50.84375 -57.90625 C 45.625 -57.90625 41.242188 -56.164062 37.703125 -52.6875 Z M 37.703125 -52.6875 "/></g></g></g><g fill="#ffffff" fill-opacity="1"><g transform="translate(137.783128, 137.285819)"><g><path d="M 90.3125 -68.96875 C 97.6875 -60.875 101.375 -50.988281 101.375 -39.3125 C 101.375 -27.644531 97.6875 -17.789062 90.3125 -9.75 C 82.945312 -1.71875 73.582031 2.296875 62.21875 2.296875 C 51.769531 2.296875 43.164062 -1.4375 36.40625 -8.90625 L 36.09375 -8.90625 L 36.09375 0 L 9.21875 0 L 9.21875 -132.109375 L 36.40625 -132.109375 L 36.40625 -71.28125 C 43.164062 -77.832031 51.769531 -81.109375 62.21875 -81.109375 C 73.582031 -81.109375 82.945312 -77.0625 90.3125 -68.96875 Z M 67.421875 -26.03125 C 70.804688 -29.46875 72.5 -33.898438 72.5 -39.328125 C 72.5 -44.753906 70.734375 -49.207031 67.203125 -52.6875 C 63.671875 -56.164062 59.296875 -57.90625 54.078125 -57.90625 C 48.953125 -57.90625 44.625 -56.164062 41.09375 -52.6875 C 37.5625 -49.207031 35.796875 -44.753906 35.796875 -39.328125 C 35.796875 -34.003906 37.507812 -29.597656 40.9375 -26.109375 C 44.363281 -22.628906 48.742188 -20.890625 54.078125 -20.890625 C 59.597656 -20.890625 64.046875 -22.601562 67.421875 -26.03125 Z M 67.421875 -26.03125 "/></g></g></g><g fill="#ffffff" fill-opacity="1"><g transform="translate(229.633862, 137.285819)"><g/></g></g><g fill="#ffffff" fill-opacity="1"><g transform="translate(258.509359, 137.285819)"><g><path d="M 9.21875 0 L 9.21875 -78.796875 L 36.40625 -78.796875 L 36.40625 -70.5 L 36.71875 -70.5 C 43.78125 -77.570312 51.304688 -81.109375 59.296875 -81.109375 C 63.179688 -81.109375 67.046875 -80.59375 70.890625 -79.5625 C 74.734375 -78.539062 78.421875 -76.953125 81.953125 -74.796875 C 85.484375 -72.648438 88.347656 -69.601562 90.546875 -65.65625 C 92.753906 -61.71875 93.859375 -57.140625 93.859375 -51.921875 L 93.859375 0 L 66.671875 0 L 66.671875 -44.546875 C 66.671875 -48.640625 65.363281 -52.222656 62.75 -55.296875 C 60.132812 -58.367188 56.726562 -59.90625 52.53125 -59.90625 C 48.4375 -59.90625 44.722656 -58.316406 41.390625 -55.140625 C 38.066406 -51.972656 36.40625 -48.441406 36.40625 -44.546875 L 36.40625 0 Z M 9.21875 0 "/></g></g></g><g fill="#ffffff" fill-opacity="1"><g transform="translate(346.980955, 137.285819)"><g><path d="M 11.828125 -122.734375 C 15.003906 -125.910156 18.789062 -127.5 23.1875 -127.5 C 27.59375 -127.5 31.382812 -125.910156 34.5625 -122.734375 C 37.738281 -119.554688 39.328125 -115.765625 39.328125 -111.359375 C 39.328125 -106.960938 37.738281 -103.175781 34.5625 -100 C 31.382812 -96.820312 27.59375 -95.234375 23.1875 -95.234375 C 18.789062 -95.234375 15.003906 -96.820312 11.828125 -100 C 8.648438 -103.175781 7.0625 -106.960938 7.0625 -111.359375 C 7.0625 -115.765625 8.648438 -119.554688 11.828125 -122.734375 Z M 9.21875 -78.796875 L 9.21875 0 L 36.40625 0 L 36.40625 -78.796875 Z M 9.21875 -78.796875 "/></g></g></g><g fill="#ffffff" fill-opacity="1"><g transform="translate(380.31079, 137.285819)"><g><path d="M 9.21875 0 L 9.21875 -78.796875 L 36.40625 -78.796875 L 36.40625 -70.5 L 36.71875 -70.5 C 43.78125 -77.570312 51.304688 -81.109375 59.296875 -81.109375 C 63.179688 -81.109375 67.046875 -80.59375 70.890625 -79.5625 C 74.734375 -78.539062 78.421875 -76.953125 81.953125 -74.796875 C 85.484375 -72.648438 88.347656 -69.601562 90.546875 -65.65625 C 92.753906 -61.71875 93.859375 -57.140625 93.859375 -51.921875 L 93.859375 0 L 66.671875 0 L 66.671875 -44.546875 C 66.671875 -48.640625 65.363281 -52.222656 62.75 -55.296875 C 60.132812 -58.367188 56.726562 -59.90625 52.53125 -59.90625 C 48.4375 -59.90625 44.722656 -58.316406 41.390625 -55.140625 C 38.066406 -51.972656 36.40625 -48.441406 36.40625 -44.546875 L 36.40625 0 Z M 9.21875 0 "/></g></g></g><g fill="#ffffff" fill-opacity="1"><g transform="translate(468.782364, 137.285819)"><g><path d="M 11.828125 -122.734375 C 15.003906 -125.910156 18.789062 -127.5 23.1875 -127.5 C 27.59375 -127.5 31.382812 -125.910156 34.5625 -122.734375 C 37.738281 -119.554688 39.328125 -115.765625 39.328125 -111.359375 C 39.328125 -106.960938 37.738281 -103.175781 34.5625 -100 C 31.382812 -96.820312 27.59375 -95.234375 23.1875 -95.234375 C 18.789062 -95.234375 15.003906 -96.820312 11.828125 -100 C 8.648438 -103.175781 7.0625 -106.960938 7.0625 -111.359375 C 7.0625 -115.765625 8.648438 -119.554688 11.828125 -122.734375 Z M 9.21875 -78.796875 L 9.21875 6.90625 C 9.21875 14.082031 6.707031 17.671875 1.6875 17.671875 C 0.664062 17.671875 -0.40625 17.488281 -1.53125 17.125 C -2.65625 16.769531 -3.578125 16.382812 -4.296875 15.96875 L -5.21875 15.359375 L -13.671875 37.328125 C -13.460938 37.429688 -12.796875 37.738281 -11.671875 38.25 C -10.546875 38.757812 -9.703125 39.140625 -9.140625 39.390625 C -8.578125 39.648438 -7.628906 39.984375 -6.296875 40.390625 C -4.960938 40.804688 -3.679688 41.113281 -2.453125 41.3125 C -1.222656 41.519531 0.3125 41.726562 2.15625 41.9375 C 4 42.144531 5.941406 42.25 7.984375 42.25 C 13.109375 42.25 17.613281 41.347656 21.5 39.546875 C 25.394531 37.753906 28.363281 35.347656 30.40625 32.328125 C 32.457031 29.304688 33.96875 26.128906 34.9375 22.796875 C 35.914062 19.472656 36.40625 15.921875 36.40625 12.140625 L 36.40625 -78.796875 Z M 9.21875 -78.796875 "/></g></g></g><g fill="#ffffff" fill-opacity="1"><g transform="translate(501.344196, 137.285819)"><g><path d="M 14.59375 -9.75 C 7.21875 -17.789062 3.53125 -27.644531 3.53125 -39.3125 C 3.53125 -50.988281 7.21875 -60.875 14.59375 -68.96875 C 21.96875 -77.0625 31.335938 -81.109375 42.703125 -81.109375 C 53.148438 -81.109375 61.753906 -77.832031 68.515625 -71.28125 L 68.515625 -78.796875 L 95.703125 -78.796875 L 95.703125 0 L 68.8125 0 L 68.8125 -8.90625 L 68.515625 -8.90625 C 61.753906 -1.4375 53.148438 2.296875 42.703125 2.296875 C 31.335938 2.296875 21.96875 -1.71875 14.59375 -9.75 Z M 37.703125 -52.6875 C 34.171875 -49.207031 32.40625 -44.753906 32.40625 -39.328125 C 32.40625 -33.898438 34.09375 -29.46875 37.46875 -26.03125 C 40.851562 -22.601562 45.3125 -20.890625 50.84375 -20.890625 C 56.164062 -20.890625 60.539062 -22.628906 63.96875 -26.109375 C 67.40625 -29.597656 69.125 -34.003906 69.125 -39.328125 C 69.125 -44.753906 67.359375 -49.207031 63.828125 -52.6875 C 60.296875 -56.164062 55.96875 -57.90625 50.84375 -57.90625 C 45.625 -57.90625 41.242188 -56.164062 37.703125 -52.6875 Z M 37.703125 -52.6875 "/></g></g></g><path fill="#000000" d="M 696.730469 96.839844 C 696.730469 97.664062 696.648438 98.484375 696.488281 99.292969 C 696.328125 100.101562 696.089844 100.886719 695.773438 101.648438 C 695.457031 102.410156 695.070312 103.132812 694.613281 103.816406 C 694.15625 104.503906 693.636719 105.136719 693.050781 105.71875 C 692.46875 106.304688 691.835938 106.824219 691.148438 107.28125 C 690.464844 107.738281 689.742188 108.125 688.980469 108.441406 C 688.21875 108.757812 687.433594 108.996094 686.625 109.15625 C 685.816406 109.316406 684.996094 109.398438 684.171875 109.398438 C 683.347656 109.398438 682.53125 109.316406 681.722656 109.15625 C 680.914062 108.996094 680.128906 108.757812 679.367188 108.441406 C 678.605469 108.125 677.882812 107.738281 677.199219 107.28125 C 676.511719 106.824219 675.878906 106.304688 675.292969 105.71875 C 674.710938 105.136719 674.191406 104.503906 673.734375 103.816406 C 673.273438 103.132812 672.886719 102.410156 672.574219 101.648438 C 672.257812 100.886719 672.019531 100.101562 671.859375 99.292969 C 671.699219 98.484375 671.617188 97.664062 671.617188 96.839844 C 671.617188 96.015625 671.699219 95.199219 671.859375 94.390625 C 672.019531 93.582031 672.257812 92.796875 672.574219 92.035156 C 672.886719 91.273438 673.273438 90.550781 673.734375 89.867188 C 674.191406 89.179688 674.710938 88.546875 675.292969 87.960938 C 675.878906 87.378906 676.511719 86.859375 677.199219 86.402344 C 677.882812 85.941406 678.605469 85.554688 679.367188 85.242188 C 680.128906 84.925781 680.914062 84.6875 681.722656 84.527344 C 682.53125 84.367188 683.347656 84.285156 684.171875 84.285156 C 684.996094 84.285156 685.816406 84.367188 686.625 84.527344 C 687.433594 84.6875 688.21875 84.925781 688.980469 85.242188 C 689.742188 85.554688 690.464844 85.941406 691.148438 86.402344 C 691.835938 86.859375 692.46875 87.378906 693.050781 87.960938 C 693.636719 88.546875 694.15625 89.179688 694.613281 89.867188 C 695.070312 90.550781 695.457031 91.273438 695.773438 92.035156 C 696.089844 92.796875 696.328125 93.582031 696.488281 94.390625 C 696.648438 95.199219 696.730469 96.015625 696.730469 96.839844 Z M 696.730469 96.839844 " fill-opacity="1" fill-rule="nonzero"/><path fill="#000000" d="M 636.03125 137.0625 C 639.320312 133.195312 643.0625 129.832031 647.25 126.96875 C 648.730469 125.964844 650.3125 125.171875 651.996094 124.582031 C 653.683594 123.992188 655.417969 123.625 657.195312 123.488281 C 658.976562 123.351562 660.746094 123.445312 662.503906 123.769531 C 664.257812 124.09375 665.945312 124.636719 667.558594 125.398438 C 668.015625 125.613281 668.363281 125.941406 668.609375 126.382812 C 670.832031 129.613281 673.300781 132.636719 676.023438 135.457031 C 678.742188 138.277344 681.675781 140.859375 684.820312 143.195312 C 687.964844 145.53125 691.28125 147.597656 694.765625 149.386719 C 698.25 151.175781 701.859375 152.671875 705.589844 153.867188 C 711.859375 155.761719 718.265625 156.765625 724.808594 156.875 C 731.355469 156.988281 737.792969 156.207031 744.121094 154.53125 C 740.144531 153.261719 736.351562 151.585938 732.734375 149.503906 C 729.117188 147.417969 725.761719 144.976562 722.667969 142.179688 C 717.738281 137.675781 713.722656 132.464844 710.621094 126.546875 C 710.039062 125.425781 709.609375 124.246094 709.328125 123.015625 C 709.050781 121.78125 708.929688 120.535156 708.96875 119.269531 C 709.007812 118.003906 709.207031 116.765625 709.5625 115.554688 C 709.921875 114.339844 710.421875 113.191406 711.074219 112.109375 C 712.027344 110.488281 713.277344 109.144531 714.820312 108.078125 C 717.929688 105.980469 720.847656 103.652344 723.585938 101.09375 C 726.324219 98.53125 728.839844 95.773438 731.140625 92.816406 C 733.4375 89.855469 735.492188 86.734375 737.292969 83.449219 C 739.097656 80.164062 740.632812 76.761719 741.894531 73.230469 C 744.035156 67.035156 745.277344 60.667969 745.625 54.121094 C 745.976562 47.574219 745.414062 41.109375 743.945312 34.722656 C 742.535156 38.65625 740.726562 42.398438 738.511719 45.941406 C 736.296875 49.488281 733.730469 52.757812 730.8125 55.75 C 726.152344 60.519531 720.816406 64.34375 714.804688 67.230469 C 713.664062 67.769531 712.476562 68.15625 711.234375 68.394531 C 709.996094 68.632812 708.746094 68.710938 707.488281 68.628906 C 706.226562 68.546875 705 68.308594 703.800781 67.914062 C 702.601562 67.519531 701.472656 66.984375 700.410156 66.300781 C 698.800781 65.28125 697.484375 63.96875 696.457031 62.367188 C 694.472656 59.191406 692.25 56.191406 689.792969 53.367188 C 687.332031 50.542969 684.667969 47.929688 681.792969 45.53125 C 678.921875 43.128906 675.878906 40.96875 672.660156 39.050781 C 669.445312 37.132812 666.097656 35.480469 662.621094 34.09375 C 656.503906 31.734375 650.175781 30.261719 643.644531 29.683594 C 637.113281 29.105469 630.625 29.4375 624.1875 30.683594 C 628.070312 32.234375 631.746094 34.175781 635.214844 36.511719 C 638.683594 38.851562 641.863281 41.527344 644.757812 44.546875 C 647.800781 47.746094 650.433594 51.253906 652.660156 55.070312 C 653.15625 55.949219 653.59375 56.855469 653.972656 57.792969 C 654.351562 58.726562 654.664062 59.683594 654.917969 60.660156 C 655.167969 61.636719 655.355469 62.625 655.480469 63.628906 C 655.601562 64.628906 655.65625 65.632812 655.648438 66.644531 C 655.640625 67.652344 655.5625 68.65625 655.421875 69.65625 C 655.28125 70.652344 655.074219 71.640625 654.804688 72.609375 C 654.53125 73.582031 654.199219 74.53125 653.804688 75.460938 C 653.410156 76.390625 652.953125 77.289062 652.441406 78.15625 C 651.128906 80.621094 649.414062 82.761719 647.289062 84.574219 C 645.941406 85.648438 644.636719 86.769531 643.371094 87.941406 C 642.109375 89.113281 640.890625 90.332031 639.71875 91.59375 C 638.546875 92.859375 637.425781 94.164062 636.351562 95.511719 C 635.277344 96.859375 634.253906 98.242188 633.285156 99.667969 C 632.3125 101.089844 631.398438 102.550781 630.535156 104.042969 C 629.675781 105.535156 628.871094 107.058594 628.125 108.609375 C 627.378906 110.164062 626.691406 111.742188 626.0625 113.347656 C 625.433594 114.953125 624.867188 116.578125 624.363281 118.226562 C 623.855469 119.871094 623.410156 121.535156 623.03125 123.214844 C 622.648438 124.894531 622.332031 126.589844 622.074219 128.292969 C 621.820312 129.996094 621.628906 131.707031 621.503906 133.425781 C 621.378906 135.144531 621.316406 136.867188 621.320312 138.589844 C 621.324219 140.3125 621.390625 142.035156 621.523438 143.75 C 621.652344 145.46875 621.847656 147.179688 622.109375 148.882812 C 622.371094 150.585938 622.691406 152.277344 623.082031 153.957031 C 623.46875 155.636719 623.917969 157.296875 624.429688 158.945312 C 625.558594 154.925781 627.101562 151.070312 629.058594 147.382812 C 631.015625 143.695312 633.339844 140.253906 636.03125 137.0625 Z M 684.171875 79.578125 C 684.738281 79.578125 685.304688 79.605469 685.867188 79.660156 C 686.429688 79.714844 686.988281 79.796875 687.542969 79.90625 C 688.097656 80.019531 688.644531 80.15625 689.183594 80.320312 C 689.726562 80.484375 690.257812 80.675781 690.78125 80.890625 C 691.304688 81.105469 691.8125 81.347656 692.3125 81.613281 C 692.8125 81.882812 693.296875 82.171875 693.765625 82.484375 C 694.234375 82.800781 694.6875 83.136719 695.125 83.496094 C 695.5625 83.855469 695.980469 84.234375 696.382812 84.632812 C 696.78125 85.03125 697.160156 85.453125 697.519531 85.886719 C 697.878906 86.324219 698.214844 86.777344 698.527344 87.25 C 698.84375 87.71875 699.132812 88.203125 699.398438 88.703125 C 699.667969 89.203125 699.90625 89.710938 700.125 90.234375 C 700.339844 90.757812 700.53125 91.289062 700.695312 91.828125 C 700.859375 92.371094 700.996094 92.917969 701.105469 93.472656 C 701.21875 94.027344 701.300781 94.585938 701.355469 95.148438 C 701.410156 95.710938 701.4375 96.277344 701.4375 96.839844 C 701.4375 97.40625 701.410156 97.972656 701.355469 98.535156 C 701.300781 99.097656 701.21875 99.65625 701.105469 100.210938 C 700.996094 100.765625 700.859375 101.3125 700.695312 101.851562 C 700.53125 102.394531 700.339844 102.925781 700.125 103.449219 C 699.90625 103.972656 699.667969 104.480469 699.398438 104.980469 C 699.132812 105.480469 698.84375 105.964844 698.527344 106.433594 C 698.214844 106.902344 697.878906 107.355469 697.519531 107.792969 C 697.160156 108.230469 696.78125 108.648438 696.382812 109.050781 C 695.980469 109.449219 695.5625 109.828125 695.125 110.1875 C 694.6875 110.546875 694.234375 110.882812 693.765625 111.195312 C 693.296875 111.511719 692.8125 111.800781 692.3125 112.066406 C 691.8125 112.335938 691.304688 112.574219 690.78125 112.792969 C 690.257812 113.007812 689.726562 113.199219 689.183594 113.363281 C 688.644531 113.527344 688.097656 113.664062 687.542969 113.773438 C 686.988281 113.886719 686.429688 113.96875 685.867188 114.023438 C 685.304688 114.078125 684.738281 114.105469 684.171875 114.105469 C 683.609375 114.105469 683.042969 114.078125 682.480469 114.023438 C 681.917969 113.96875 681.359375 113.886719 680.804688 113.773438 C 680.25 113.664062 679.703125 113.527344 679.160156 113.363281 C 678.621094 113.199219 678.089844 113.007812 677.566406 112.792969 C 677.042969 112.574219 676.535156 112.335938 676.035156 112.066406 C 675.535156 111.800781 675.050781 111.511719 674.582031 111.195312 C 674.113281 110.882812 673.65625 110.546875 673.21875 110.1875 C 672.785156 109.828125 672.363281 109.449219 671.964844 109.050781 C 671.566406 108.648438 671.1875 108.230469 670.828125 107.792969 C 670.46875 107.355469 670.132812 106.902344 669.816406 106.433594 C 669.503906 105.964844 669.214844 105.480469 668.945312 104.980469 C 668.679688 104.480469 668.4375 103.972656 668.222656 103.449219 C 668.007812 102.925781 667.816406 102.394531 667.652344 101.851562 C 667.488281 101.3125 667.351562 100.765625 667.238281 100.210938 C 667.128906 99.65625 667.046875 99.097656 666.992188 98.535156 C 666.9375 97.972656 666.910156 97.40625 666.910156 96.839844 C 666.910156 96.277344 666.9375 95.710938 666.992188 95.148438 C 667.050781 94.585938 667.132812 94.027344 667.242188 93.472656 C 667.355469 92.921875 667.492188 92.371094 667.65625 91.832031 C 667.820312 91.292969 668.011719 90.757812 668.226562 90.238281 C 668.445312 89.714844 668.6875 89.207031 668.953125 88.707031 C 669.21875 88.207031 669.511719 87.722656 669.824219 87.253906 C 670.136719 86.785156 670.476562 86.332031 670.832031 85.894531 C 671.191406 85.457031 671.570312 85.039062 671.972656 84.640625 C 672.371094 84.238281 672.789062 83.859375 673.226562 83.5 C 673.664062 83.144531 674.117188 82.804688 674.585938 82.492188 C 675.054688 82.179688 675.539062 81.886719 676.039062 81.621094 C 676.539062 81.355469 677.046875 81.113281 677.570312 80.894531 C 678.089844 80.679688 678.625 80.488281 679.164062 80.324219 C 679.703125 80.160156 680.253906 80.023438 680.808594 79.910156 C 681.359375 79.800781 681.917969 79.71875 682.480469 79.660156 C 683.042969 79.605469 683.609375 79.578125 684.171875 79.578125 Z M 684.171875 79.578125 " fill-opacity="1" fill-rule="nonzero"/></svg>