<svg xmlns="http://www.w3.org/2000/svg" xmlns:xlink="http://www.w3.org/1999/xlink" width="250" zoomAndPan="magnify" viewBox="0 0 187.5 187.499992" height="250" preserveAspectRatio="xMidYMid meet" version="1.0"><path fill="#004aad" d="M 115.25 98.097656 C 115.25 98.683594 115.222656 99.269531 115.164062 99.855469 C 115.105469 100.441406 115.019531 101.019531 114.90625 101.597656 C 114.789062 102.171875 114.648438 102.742188 114.476562 103.304688 C 114.308594 103.867188 114.109375 104.417969 113.882812 104.960938 C 113.660156 105.503906 113.410156 106.035156 113.132812 106.554688 C 112.855469 107.070312 112.554688 107.574219 112.226562 108.0625 C 111.902344 108.550781 111.550781 109.023438 111.179688 109.476562 C 110.804688 109.929688 110.410156 110.367188 109.996094 110.78125 C 109.582031 111.195312 109.144531 111.589844 108.691406 111.964844 C 108.238281 112.335938 107.765625 112.683594 107.277344 113.011719 C 106.789062 113.339844 106.285156 113.640625 105.769531 113.917969 C 105.25 114.195312 104.71875 114.445312 104.175781 114.667969 C 103.632812 114.894531 103.082031 115.09375 102.519531 115.261719 C 101.957031 115.433594 101.386719 115.574219 100.8125 115.691406 C 100.234375 115.804688 99.65625 115.890625 99.070312 115.949219 C 98.484375 116.007812 97.898438 116.035156 97.3125 116.035156 C 96.726562 116.035156 96.140625 116.007812 95.554688 115.949219 C 94.96875 115.890625 94.390625 115.804688 93.8125 115.691406 C 93.238281 115.574219 92.667969 115.433594 92.105469 115.261719 C 91.542969 115.09375 90.992188 114.894531 90.449219 114.667969 C 89.90625 114.445312 89.375 114.195312 88.855469 113.917969 C 88.339844 113.640625 87.835938 113.339844 87.347656 113.011719 C 86.859375 112.683594 86.386719 112.335938 85.933594 111.964844 C 85.480469 111.589844 85.042969 111.195312 84.628906 110.78125 C 84.214844 110.367188 83.820312 109.929688 83.445312 109.476562 C 83.074219 109.023438 82.722656 108.550781 82.398438 108.0625 C 82.070312 107.574219 81.769531 107.070312 81.492188 106.554688 C 81.214844 106.035156 80.964844 105.503906 80.738281 104.960938 C 80.515625 104.417969 80.316406 103.867188 80.148438 103.304688 C 79.976562 102.742188 79.832031 102.171875 79.71875 101.597656 C 79.605469 101.019531 79.519531 100.441406 79.460938 99.855469 C 79.402344 99.269531 79.375 98.683594 79.375 98.097656 C 79.375 97.507812 79.402344 96.921875 79.460938 96.339844 C 79.519531 95.753906 79.605469 95.175781 79.71875 94.597656 C 79.832031 94.023438 79.976562 93.453125 80.148438 92.890625 C 80.316406 92.328125 80.515625 91.777344 80.738281 91.234375 C 80.964844 90.691406 81.214844 90.160156 81.492188 89.640625 C 81.769531 89.125 82.070312 88.621094 82.398438 88.132812 C 82.722656 87.644531 83.074219 87.171875 83.445312 86.71875 C 83.820312 86.261719 84.214844 85.828125 84.628906 85.414062 C 85.042969 84.996094 85.480469 84.605469 85.933594 84.230469 C 86.386719 83.859375 86.859375 83.507812 87.347656 83.183594 C 87.835938 82.855469 88.339844 82.554688 88.855469 82.277344 C 89.375 82 89.90625 81.75 90.449219 81.523438 C 90.992188 81.300781 91.542969 81.101562 92.105469 80.933594 C 92.667969 80.761719 93.238281 80.617188 93.8125 80.503906 C 94.390625 80.390625 94.96875 80.304688 95.554688 80.246094 C 96.140625 80.1875 96.726562 80.160156 97.3125 80.160156 C 97.898438 80.160156 98.484375 80.1875 99.070312 80.246094 C 99.65625 80.304688 100.234375 80.390625 100.8125 80.503906 C 101.386719 80.617188 101.957031 80.761719 102.519531 80.933594 C 103.082031 81.101562 103.632812 81.300781 104.175781 81.523438 C 104.71875 81.75 105.25 82 105.769531 82.277344 C 106.285156 82.554688 106.789062 82.855469 107.277344 83.183594 C 107.765625 83.507812 108.238281 83.859375 108.691406 84.230469 C 109.144531 84.605469 109.582031 84.996094 109.996094 85.414062 C 110.410156 85.828125 110.804688 86.261719 111.179688 86.71875 C 111.550781 87.171875 111.902344 87.644531 112.226562 88.132812 C 112.554688 88.621094 112.855469 89.125 113.132812 89.640625 C 113.410156 90.160156 113.660156 90.691406 113.882812 91.234375 C 114.109375 91.777344 114.308594 92.328125 114.476562 92.890625 C 114.648438 93.453125 114.789062 94.023438 114.90625 94.597656 C 115.019531 95.175781 115.105469 95.753906 115.164062 96.339844 C 115.222656 96.921875 115.25 97.507812 115.25 98.097656 Z M 115.25 98.097656 " fill-opacity="1" fill-rule="nonzero"/><path fill="#004aad" d="M 28.539062 155.554688 C 33.238281 150.035156 38.578125 145.226562 44.566406 141.136719 C 45.617188 140.421875 46.710938 139.78125 47.84375 139.210938 C 48.980469 138.640625 50.148438 138.144531 51.347656 137.722656 C 52.546875 137.304688 53.765625 136.964844 55.011719 136.703125 C 56.253906 136.441406 57.507812 136.261719 58.773438 136.164062 C 60.042969 136.066406 61.308594 136.050781 62.578125 136.117188 C 63.847656 136.183594 65.105469 136.335938 66.355469 136.5625 C 67.605469 136.792969 68.832031 137.105469 70.042969 137.496094 C 71.25 137.886719 72.429688 138.351562 73.578125 138.894531 C 74.230469 139.203125 74.730469 139.671875 75.078125 140.300781 C 78.25 144.914062 81.78125 149.234375 85.667969 153.261719 C 89.550781 157.292969 93.742188 160.976562 98.234375 164.316406 C 102.726562 167.65625 107.464844 170.605469 112.445312 173.164062 C 117.421875 175.71875 122.578125 177.855469 127.910156 179.5625 C 132.363281 180.90625 136.890625 181.941406 141.488281 182.660156 C 146.085938 183.382812 150.710938 183.78125 155.363281 183.863281 C 160.019531 183.941406 164.65625 183.703125 169.273438 183.140625 C 173.894531 182.578125 178.453125 181.703125 182.953125 180.511719 C 177.273438 178.695312 171.851562 176.300781 166.683594 173.328125 C 161.519531 170.351562 156.726562 166.863281 152.304688 162.863281 C 145.261719 156.429688 139.523438 148.988281 135.097656 140.535156 C 134.265625 138.933594 133.648438 137.25 133.25 135.488281 C 132.851562 133.726562 132.679688 131.941406 132.734375 130.136719 C 132.792969 128.332031 133.074219 126.5625 133.582031 124.828125 C 134.09375 123.097656 134.8125 121.457031 135.742188 119.90625 C 137.105469 117.59375 138.890625 115.675781 141.097656 114.148438 C 145.535156 111.152344 149.707031 107.828125 153.617188 104.171875 C 157.527344 100.515625 161.121094 96.570312 164.40625 92.34375 C 167.691406 88.117188 170.621094 83.660156 173.199219 78.964844 C 175.777344 74.273438 177.96875 69.410156 179.773438 64.371094 C 181.292969 59.964844 182.5 55.476562 183.390625 50.90625 C 184.285156 46.332031 184.855469 41.71875 185.101562 37.066406 C 185.351562 32.414062 185.273438 27.769531 184.871094 23.128906 C 184.46875 18.484375 183.746094 13.894531 182.699219 9.355469 C 180.6875 14.976562 178.101562 20.320312 174.9375 25.382812 C 171.773438 30.449219 168.109375 35.121094 163.941406 39.394531 C 157.28125 46.207031 149.660156 51.671875 141.070312 55.792969 C 139.441406 56.566406 137.742188 57.121094 135.972656 57.460938 C 134.203125 57.796875 132.417969 57.910156 130.617188 57.792969 C 128.820312 57.675781 127.0625 57.339844 125.351562 56.773438 C 123.640625 56.210938 122.023438 55.441406 120.507812 54.46875 C 118.210938 53.011719 116.324219 51.136719 114.859375 48.847656 C 112.023438 44.308594 108.851562 40.023438 105.339844 35.992188 C 101.828125 31.957031 98.019531 28.226562 93.914062 24.796875 C 89.808594 21.367188 85.460938 18.28125 80.867188 15.539062 C 76.273438 12.800781 71.492188 10.441406 66.523438 8.457031 C 62.175781 6.78125 57.730469 5.414062 53.191406 4.359375 C 48.648438 3.304688 44.058594 2.570312 39.414062 2.15625 C 34.769531 1.746094 30.121094 1.660156 25.464844 1.898438 C 20.808594 2.140625 16.195312 2.703125 11.617188 3.585938 C 17.164062 5.800781 22.417969 8.574219 27.371094 11.914062 C 32.324219 15.25 36.867188 19.078125 41.003906 23.386719 C 45.351562 27.960938 49.113281 32.976562 52.292969 38.425781 C 53.003906 39.679688 53.628906 40.976562 54.167969 42.3125 C 54.707031 43.648438 55.15625 45.011719 55.519531 46.410156 C 55.878906 47.804688 56.144531 49.21875 56.320312 50.648438 C 56.496094 52.078125 56.574219 53.515625 56.5625 54.957031 C 56.546875 56.398438 56.441406 57.832031 56.238281 59.257812 C 56.035156 60.6875 55.742188 62.09375 55.355469 63.480469 C 54.96875 64.871094 54.492188 66.226562 53.925781 67.554688 C 53.363281 68.878906 52.710938 70.164062 51.980469 71.402344 C 50.105469 74.925781 47.652344 77.980469 44.621094 80.570312 C 42.695312 82.105469 40.832031 83.710938 39.023438 85.382812 C 37.21875 87.058594 35.480469 88.796875 33.808594 90.601562 C 32.132812 92.40625 30.527344 94.269531 28.992188 96.195312 C 27.457031 98.121094 26 100.101562 24.613281 102.132812 C 23.226562 104.167969 21.917969 106.253906 20.6875 108.382812 C 19.460938 110.515625 18.3125 112.691406 17.246094 114.910156 C 16.175781 117.128906 15.195312 119.386719 14.296875 121.675781 C 13.402344 123.96875 12.589844 126.292969 11.867188 128.644531 C 11.144531 130.996094 10.507812 133.375 9.964844 135.773438 C 9.417969 138.175781 8.964844 140.59375 8.601562 143.027344 C 8.238281 145.460938 7.964844 147.90625 7.785156 150.363281 C 7.605469 152.816406 7.515625 155.277344 7.519531 157.738281 C 7.523438 160.199219 7.621094 162.65625 7.808594 165.113281 C 7.996094 167.566406 8.277344 170.007812 8.648438 172.441406 C 9.019531 174.875 9.484375 177.292969 10.035156 179.691406 C 10.589844 182.089844 11.230469 184.464844 11.960938 186.816406 C 13.578125 181.074219 15.78125 175.566406 18.578125 170.296875 C 21.371094 165.027344 24.691406 160.113281 28.539062 155.554688 Z M 97.3125 73.433594 C 98.121094 73.433594 98.925781 73.472656 99.730469 73.550781 C 100.535156 73.628906 101.332031 73.75 102.125 73.90625 C 102.917969 74.0625 103.699219 74.261719 104.472656 74.496094 C 105.246094 74.730469 106.003906 75 106.75 75.308594 C 107.496094 75.621094 108.226562 75.964844 108.9375 76.34375 C 109.652344 76.726562 110.34375 77.140625 111.015625 77.589844 C 111.6875 78.039062 112.335938 78.519531 112.960938 79.03125 C 113.582031 79.542969 114.179688 80.085938 114.753906 80.65625 C 115.324219 81.226562 115.867188 81.824219 116.378906 82.449219 C 116.890625 83.074219 117.371094 83.722656 117.820312 84.394531 C 118.269531 85.066406 118.683594 85.757812 119.066406 86.46875 C 119.445312 87.183594 119.789062 87.914062 120.097656 88.660156 C 120.410156 89.40625 120.679688 90.164062 120.914062 90.9375 C 121.148438 91.710938 121.34375 92.492188 121.503906 93.285156 C 121.660156 94.078125 121.777344 94.875 121.859375 95.679688 C 121.9375 96.484375 121.976562 97.289062 121.976562 98.097656 C 121.976562 98.90625 121.9375 99.710938 121.859375 100.515625 C 121.777344 101.320312 121.660156 102.117188 121.503906 102.910156 C 121.34375 103.703125 121.148438 104.484375 120.914062 105.257812 C 120.679688 106.03125 120.410156 106.789062 120.097656 107.535156 C 119.789062 108.28125 119.445312 109.011719 119.066406 109.722656 C 118.683594 110.4375 118.269531 111.128906 117.820312 111.800781 C 117.371094 112.472656 116.890625 113.121094 116.378906 113.746094 C 115.867188 114.367188 115.324219 114.964844 114.753906 115.539062 C 114.179688 116.109375 113.582031 116.652344 112.960938 117.164062 C 112.335938 117.675781 111.6875 118.15625 111.015625 118.605469 C 110.34375 119.054688 109.652344 119.46875 108.9375 119.847656 C 108.226562 120.230469 107.496094 120.574219 106.75 120.882812 C 106.003906 121.191406 105.246094 121.464844 104.472656 121.699219 C 103.699219 121.933594 102.917969 122.128906 102.125 122.289062 C 101.332031 122.445312 100.535156 122.5625 99.730469 122.644531 C 98.925781 122.722656 98.121094 122.761719 97.3125 122.761719 C 96.503906 122.761719 95.699219 122.722656 94.894531 122.644531 C 94.089844 122.5625 93.292969 122.445312 92.5 122.289062 C 91.707031 122.128906 90.925781 121.933594 90.152344 121.699219 C 89.378906 121.464844 88.621094 121.191406 87.875 120.882812 C 87.128906 120.574219 86.398438 120.230469 85.6875 119.847656 C 84.972656 119.46875 84.28125 119.054688 83.609375 118.605469 C 82.9375 118.15625 82.289062 117.675781 81.664062 117.164062 C 81.042969 116.652344 80.441406 116.109375 79.871094 115.539062 C 79.300781 114.964844 78.757812 114.367188 78.246094 113.746094 C 77.734375 113.121094 77.253906 112.472656 76.804688 111.800781 C 76.355469 111.128906 75.941406 110.4375 75.558594 109.722656 C 75.179688 109.011719 74.835938 108.28125 74.527344 107.535156 C 74.214844 106.789062 73.945312 106.03125 73.710938 105.257812 C 73.476562 104.484375 73.28125 103.703125 73.121094 102.910156 C 72.964844 102.117188 72.847656 101.320312 72.765625 100.515625 C 72.6875 99.710938 72.648438 98.90625 72.648438 98.097656 C 72.648438 97.289062 72.6875 96.484375 72.769531 95.679688 C 72.847656 94.878906 72.96875 94.078125 73.125 93.289062 C 73.285156 92.496094 73.480469 91.714844 73.714844 90.941406 C 73.953125 90.167969 74.222656 89.410156 74.535156 88.664062 C 74.84375 87.917969 75.1875 87.1875 75.570312 86.476562 C 75.949219 85.765625 76.363281 85.074219 76.8125 84.402344 C 77.261719 83.730469 77.742188 83.082031 78.253906 82.457031 C 78.769531 81.832031 79.308594 81.234375 79.878906 80.664062 C 80.453125 80.09375 81.050781 79.550781 81.671875 79.039062 C 82.296875 78.527344 82.945312 78.046875 83.617188 77.597656 C 84.289062 77.148438 84.980469 76.734375 85.691406 76.355469 C 86.402344 75.972656 87.132812 75.628906 87.878906 75.316406 C 88.625 75.007812 89.382812 74.734375 90.15625 74.5 C 90.929688 74.265625 91.710938 74.070312 92.503906 73.910156 C 93.292969 73.753906 94.09375 73.632812 94.894531 73.554688 C 95.699219 73.472656 96.503906 73.433594 97.3125 73.433594 Z M 97.3125 73.433594 " fill-opacity="1" fill-rule="nonzero"/></svg>